Coordinates
version=1
nRows=31
nColumns=33
inDegrees=yes

Units are S.I. units (second, meters, Newtons, ...)
Angles are in degrees.

endheader
time	ground_thorax_rot_x	ground_thorax_rot_y	ground_thorax_rot_z	ground_thorax_tx	ground_thorax_ty	ground_thorax_tz	clav_prot_r	clav_elev_r	scapula_abduction_r	scapula_elevation_r	scapula_upward_rot_r	scapula_winging_r	shoulder_elv_r	plane_of_elev_r	axial_rot_r	elbow_flexion_r	pro_sup_r	wrist_flex_r	wrist_dev_r	clav_prot_l	clav_elev_l	scapula_abduction_l	scapula_elevation_l	scapula_upward_rot_l	scapula_winging_l	shoulder_elv_l	plane_of_elev_l	axial_rot_l	elbow_flexion_l	pro_sup_l	wrist_flex_l	wrist_dev_l	
2.0700	3.006843	-9.106952	8.445574	-0.116293	1.031032	0.008357	1.716077	-8.403248	2.514656	-1.156615	-0.916854	0.977808	34.844344	8.036649	17.491195	59.312290	44.143516	8.404360	19.975919	3.146144	-14.910281	-0.935196	1.029581	-17.912444	-5.792917	51.086067	4.594803	-2.261575	61.824917	40.588718	13.228204	-6.241646	
2.0800	3.019431	-9.105415	8.452973	-0.116085	1.031189	0.008409	1.733390	-8.413666	2.560736	-1.178455	-0.885490	0.965676	34.860961	8.104743	17.499877	59.270471	44.134077	8.388459	19.974862	3.174458	-14.928954	-0.985850	1.051131	-17.901073	-5.784609	51.082091	4.644547	-2.286024	61.835976	40.565490	13.221673	-6.272578	
2.0900	3.037853	-9.102274	8.454828	-0.115950	1.031297	0.008447	1.759207	-8.426165	2.628591	-1.208667	-0.840958	0.945673	34.886233	8.202453	17.510836	59.203761	44.118801	8.363479	19.973973	3.215386	-14.952678	-1.060218	1.080354	-17.883954	-5.768944	51.077182	4.715116	-2.317085	61.847789	40.525881	13.211464	-6.317900	
2.1000	3.061486	-9.098068	8.436214	-0.115859	1.031388	0.008486	1.799327	-8.437888	2.731210	-1.246823	-0.775828	0.912832	34.925402	8.344408	17.524810	59.092540	44.092737	8.322409	19.974017	3.275914	-14.978530	-1.171759	1.117861	-17.851691	-5.740835	51.077710	4.813814	-2.348274	61.848536	40.455985	13.194818	-6.384758	
2.1100	3.087638	-9.092872	8.404763	-0.115811	1.031459	0.008525	1.853587	-8.448575	2.865720	-1.290420	-0.695612	0.868288	34.972344	8.530165	17.530095	58.940752	44.050860	8.263534	19.975067	3.354762	-15.005397	-1.317673	1.161389	-17.807085	-5.700685	51.075982	4.942450	-2.369021	61.840685	40.341379	13.169641	-6.472030	
2.1200	3.115492	-9.086930	8.364420	-0.115800	1.031513	0.008562	1.922702	-8.457324	3.032551	-1.337898	-0.601863	0.811827	35.025866	8.760744	17.521082	58.750505	43.989863	8.186045	19.977994	3.452169	-15.031740	-1.498470	1.209267	-17.750360	-5.647802	51.067913	5.102773	-2.377035	61.825519	40.169633	13.134588	-6.578906	
2.1300	3.139708	-9.080536	8.319358	-0.115808	1.031558	0.008595	2.010017	-8.459548	3.232978	-1.381100	-0.502917	0.742359	35.078207	9.037342	17.476875	58.522680	43.896704	8.084903	19.986365	3.568700	-15.049632	-1.715406	1.254146	-17.680187	-5.578548	51.042416	5.298824	-2.356178	61.800412	39.896573	13.085467	-6.702997	
2.1400	3.163080	-9.074264	8.275274	-0.115828	1.031594	0.008623	2.116224	-8.452267	3.466807	-1.416233	-0.401075	0.659223	35.131375	9.357996	17.394250	58.265460	43.768508	7.961329	20.001351	3.704346	-15.056094	-1.968418	1.292633	-17.597592	-5.491743	50.993755	5.530286	-2.309869	61.769986	39.506088	13.019925	-6.842270	
2.1500	3.186195	-9.068878	8.240139	-0.115856	1.031595	0.008644	2.258663	-8.410051	3.753904	-1.412664	-0.311412	0.549053	35.182770	9.737914	17.240675	57.980528	43.565988	7.799289	20.029572	3.872586	-15.027486	-2.282467	1.303732	-17.496257	-5.368588	50.893417	5.809104	-2.210561	61.728220	38.870846	12.920716	-7.007694	
2.1600	3.213284	-9.061795	8.226072	-0.115878	1.031571	0.008652	2.425874	-8.343636	4.076249	-1.381405	-0.232556	0.420660	35.242289	10.154220	17.039137	57.696124	43.316181	7.618637	20.068789	4.059974	-14.975720	-2.632644	1.296301	-17.383871	-5.222608	50.748071	6.120523	-2.093306	61.692342	38.048645	12.792242	-7.180606	
2.1700	3.238451	-9.054327	8.215219	-0.115903	1.031536	0.008646	2.617063	-8.263113	4.437133	-1.335005	-0.157274	0.275414	35.319539	10.614740	16.801951	57.411853	43.035203	7.427386	20.120865	4.260267	-14.908391	-3.010776	1.283724	-17.248415	-5.058965	50.571620	6.467443	-1.970504	61.656983	37.052653	12.629884	-7.345776	
2.1800	3.265633	-9.048015	8.216238	-0.115899	1.031537	0.008626	2.804746	-8.200022	4.796544	-1.307155	-0.076877	0.135457	35.422601	11.082132	16.569779	57.158974	42.788944	7.261544	20.180006	4.441374	-14.853250	-3.357516	1.287679	-17.105186	-4.910295	50.387980	6.823547	-1.892533	61.648151	36.033839	12.444225	-7.463721	
2.1900	3.289422	-9.051125	8.208232	-0.115873	1.031568	0.008595	2.994670	-8.154024	5.166937	-1.299648	0.013695	-0.003899	35.553087	11.580086	16.337338	56.929007	42.581938	7.120257	20.251332	4.599927	-14.804500	-3.670276	1.308769	-16.941101	-4.774497	50.199633	7.202755	-1.846669	61.662524	34.957110	12.219948	-7.523888	
2.2000	3.314098	-9.070182	8.216946	-0.115813	1.031635	0.008553	3.185181	-8.125966	5.538132	-1.306884	0.098999	-0.138111	35.713003	12.095565	16.105314	56.740389	42.455034	7.025349	20.343966	4.712670	-14.760068	-3.907637	1.342969	-16.762931	-4.665492	49.993778	7.590894	-1.869530	61.706110	33.803591	11.929915	-7.477091	
2.2100	3.336479	-9.106578	8.223630	-0.115750	1.031731	0.008504	3.386164	-8.108600	5.929797	-1.324832	0.185867	-0.276400	35.902479	12.653873	15.861442	56.572775	42.393233	6.961331	20.452629	4.793091	-14.716724	-4.094533	1.389575	-16.563947	-4.573112	49.783585	8.004121	-1.938903	61.769020	32.559168	11.564743	-7.346096	
2.2200	3.364305	-9.155796	8.243067	-0.115675	1.031852	0.008454	3.592164	-8.095932	6.330366	-1.346755	0.271685	-0.416689	36.118116	13.240200	15.596099	56.442074	42.391447	6.924579	20.564157	4.844571	-14.677470	-4.232748	1.443093	-16.361727	-4.499027	49.574782	8.436858	-2.046494	61.867242	31.267817	11.125806	-7.151592	
2.2300	3.393175	-9.216895	8.260941	-0.115617	1.031976	0.008410	3.824556	-8.067814	6.772086	-1.351150	0.350955	-0.575755	36.366170	13.883063	15.284964	56.338158	42.422889	6.890807	20.660065	4.891614	-14.635106	-4.363282	1.492737	-16.161558	-4.426533	49.387914	8.909199	-2.149615	61.993224	29.908385	10.579241	-6.936951	
2.2400	3.425016	-9.277913	8.288644	-0.115573	1.032119	0.008370	4.068994	-8.030292	7.233766	-1.346547	0.430263	-0.745255	36.643587	14.556182	14.935088	56.269190	42.483305	6.860224	20.731847	4.935334	-14.599952	-4.486065	1.544731	-15.971513	-4.360296	49.229460	9.412328	-2.252224	62.152157	28.558328	9.957439	-6.718669	
2.2500	3.456158	-9.329989	8.312587	-0.115538	1.032310	0.008335	4.300694	-8.006747	7.687474	-1.366088	0.535544	-0.910580	36.944652	15.234828	14.568643	56.238707	42.572663	6.831340	20.760452	4.979266	-14.591081	-4.605034	1.614160	-15.799013	-4.307108	49.132471	9.943589	-2.343630	62.355678	27.388318	9.315303	-6.529214	
2.2600	3.485166	-9.366723	8.327991	-0.115496	1.032558	0.008308	4.495251	-8.008795	8.104393	-1.431455	0.692077	-1.060134	37.250141	15.897851	14.198517	56.247167	42.667089	6.799158	20.747719	5.025531	-14.607660	-4.726513	1.704882	-15.633780	-4.263974	49.089854	10.503065	-2.406049	62.609588	26.466478	8.725293	-6.389230	
2.2700	3.507380	-9.395330	8.341936	-0.115472	1.032820	0.008284	4.681178	-8.013545	8.522735	-1.513175	0.881018	-1.212999	37.563912	16.569234	13.794926	56.281782	42.766294	6.751229	20.696924	5.086069	-14.614067	-4.873807	1.786217	-15.466053	-4.207302	49.076496	11.114227	-2.432131	62.893596	25.683435	8.140021	-6.279346	
2.2800	3.524188	-9.413493	8.362545	-0.115462	1.033092	0.008258	4.851414	-8.017858	8.932517	-1.610286	1.107464	-1.366668	37.875807	17.241361	13.360384	56.338888	42.845476	6.686260	20.627245	5.159824	-14.601932	-5.050321	1.859152	-15.276024	-4.131356	49.060945	11.768511	-2.420658	63.199425	24.972864	7.593838	-6.194458	
2.2900	3.538342	-9.423589	8.395843	-0.115465	1.033375	0.008232	5.007498	-8.021491	9.334884	-1.720809	1.367632	-1.521098	38.188016	17.911642	12.896314	56.418056	42.909831	6.605776	20.538832	5.246345	-14.571747	-5.254989	1.923301	-15.065600	-4.036743	49.043372	12.456868	-2.376010	63.527988	24.326015	7.076217	-6.130827	
2.3000	3.550115	-9.424937	8.425224	-0.115460	1.033692	0.008209	5.133213	-8.039540	9.712215	-1.866050	1.679007	-1.666329	38.499820	18.572128	12.422569	56.520146	42.961869	6.516222	20.433974	5.337562	-14.541687	-5.475321	1.999166	-14.829484	-3.935201	49.038138	13.165338	-2.294950	63.891408	23.783899	6.608914	-6.093238	
2.3100	3.562145	-9.422898	8.473927	-0.115478	1.034019	0.008190	5.258425	-8.051985	10.098409	-2.012864	2.008192	-1.817659	38.824344	19.238993	11.916471	56.635515	43.022572	6.417659	20.314141	5.437103	-14.496810	-5.715375	2.067842	-14.576722	-3.819348	49.034993	13.893505	-2.193944	64.273342	23.243278	6.116410	-6.055683	
2.3200	3.565600	-9.413849	8.523857	-0.115514	1.034348	0.008166	5.389343	-8.053677	10.505987	-2.158578	2.359765	-1.982269	39.166048	19.912151	11.357576	56.769663	43.100794	6.300552	20.167050	5.554970	-14.426650	-5.995003	2.123078	-14.298325	-3.676810	49.034784	14.657489	-2.058822	64.675083	22.710041	5.578315	-6.016217	
2.3300	3.560850	-9.394260	8.571855	-0.115567	1.034674	0.008142	5.524803	-8.043021	10.931341	-2.300188	2.730296	-2.159029	39.531207	20.591891	10.742193	56.925733	43.201166	6.174143	19.992975	5.694397	-14.332498	-6.320190	2.166419	-13.993332	-3.505847	49.042700	15.455278	-1.891900	65.094650	22.179451	4.990962	-5.978242	
2.3400	3.543829	-9.362589	8.597904	-0.115624	1.034993	0.008118	5.664354	-8.018268	11.375035	-2.436904	3.122052	-2.348656	39.927080	21.287757	10.060817	57.105959	43.328711	6.044157	19.790495	5.858228	-14.213841	-6.697944	2.200153	-13.655510	-3.303383	49.064810	16.297008	-1.683619	65.531630	21.641822	4.345212	-5.943016	
2.3500	3.514190	-9.306213	8.622022	-0.115714	1.035301	0.008093	5.812968	-7.972508	11.831565	-2.551207	3.508359	-2.549666	40.364980	21.998412	9.295162	57.306569	43.503248	5.933225	19.557273	6.065605	-14.066660	-7.158499	2.215313	-13.294430	-3.056392	49.101074	17.176614	-1.440480	65.971607	21.068926	3.615029	-5.915563	
2.3600	3.473297	-9.225328	8.624702	-0.115808	1.035606	0.008067	5.957124	-7.909727	12.284902	-2.652150	3.902186	-2.755882	40.844024	22.727555	8.457845	57.531252	43.719352	5.844653	19.298288	6.309492	-13.901258	-7.690919	2.223615	-12.906895	-2.773145	49.156768	18.096002	-1.154836	66.420565	20.477008	2.821589	-5.899520	
2.3700	3.428355	-9.105408	8.617645	-0.115901	1.035928	0.008041	6.064568	-7.839151	12.682885	-2.750800	4.308855	-2.946233	41.354131	23.462699	7.574820	57.774165	43.980443	5.800627	19.023645	6.593452	-13.739209	-8.297885	2.240873	-12.504301	-2.461182	49.240064	19.033035	-0.831312	66.879020	19.916550	2.013750	-5.912018	
